<?xml version="1.0" encoding="UTF-8" standalone="no"?>
<svg width="54px" height="61px" viewBox="0 0 54 61" version="1.1" xmlns="http://www.w3.org/2000/svg" xmlns:xlink="http://www.w3.org/1999/xlink" xmlns:sketch="http://www.bohemiancoding.com/sketch/ns">
    <!-- Generator: Sketch 3.3.3 (12072) - http://www.bohemiancoding.com/sketch -->
    <title>Shape</title>
    <desc>Created with Sketch.</desc>
    <defs></defs>
    <g id="Page-1" stroke="none" stroke-width="1" fill="none" fill-rule="evenodd" sketch:type="MSPage">
        <g id="verification-code" sketch:type="MSArtboardGroup" transform="translate(-613.000000, -208.000000)" fill="#EB5424">
            <g id="Lock-Copy-2" sketch:type="MSLayerGroup" transform="translate(490.000000, 195.000000)">
                <g id="Header" transform="translate(-0.500000, 0.000000)" sketch:type="MSShapeGroup">
                    <path d="M166.077374,62.038627 L160.129065,43.4991063 L175.699514,32.0441677 L156.452763,32.0441677 L150.503748,13.505362 L150.501983,13.5003575 L169.751911,13.5003575 L175.701985,32.0423804 L175.701985,32.0420229 L175.706927,32.0391632 C179.162948,42.7959744 175.603847,55.0305423 166.077374,62.038627 L166.077374,62.038627 L166.077374,62.038627 Z M134.929416,62.038627 L134.924474,62.0422016 L150.499159,73.5 L166.077374,62.0389844 L150.504101,50.5808286 L134.929416,62.038627 L134.929416,62.038627 Z M125.30304,32.0395206 L125.30304,32.0395206 C121.66557,43.3786409 125.887986,55.3937259 134.926239,62.0407718 L134.927651,62.0350523 L140.876666,43.4966041 L125.309394,32.0438102 L144.551556,32.0438102 L150.500924,13.5050045 L150.502336,13.5 L131.251349,13.5 L125.30304,32.0395206 L125.30304,32.0395206 Z" id="Shape"></path>
                </g>
            </g>
        </g>
    </g>
</svg>