<?xml version="1.0" encoding="UTF-8" standalone="no"?>
<svg width="78px" height="78px" viewBox="0 0 78 78" version="1.1" xmlns="http://www.w3.org/2000/svg" xmlns:xlink="http://www.w3.org/1999/xlink" xmlns:sketch="http://www.bohemiancoding.com/sketch/ns">
    <!-- Generator: Sketch 3.3.3 (12072) - http://www.bohemiancoding.com/sketch -->
    <title>Rectangle 7 + Group</title>
    <desc>Created with Sketch.</desc>
    <defs></defs>
    <g id="Page-1" stroke="none" stroke-width="1" fill="none" fill-rule="evenodd" sketch:type="MSPage">
        <g id="mobile-authorize-app" sketch:type="MSArtboardGroup" transform="translate(-115.000000, -38.000000)">
            <g id="Rectangle-7-+-Shape-Copy-2-+-Shape-Copy" sketch:type="MSLayerGroup" transform="translate(115.000000, 38.000000)">
                <g id="Rectangle-7-+-Shape-Copy-2" sketch:type="MSShapeGroup">
                    <g id="Rectangle-7-+-Group-+-Rectangle-7-Copy-+-Shape-Copy-2">
                        <g id="Rectangle-7-+-Group">
                            <rect id="Rectangle-7" fill="#9012FE" x="0" y="0" width="78" height="78" rx="65.0000036"></rect>
                            <g id="Group" transform="translate(14.300000, 15.600000)" fill="#FFFFFF">
                                <path d="M16.4149842,0.564567677 C20.3479089,0.167621212 24.3463743,0.693320202 28.094905,1.91282525 C30.619196,2.7557899 33.0608277,3.86063232 35.3161089,5.27205152 C36.1930812,5.80892525 37.0338594,6.40215859 37.8594752,7.01385455 C38.1382673,6.7821 38.4806436,6.60621919 38.8518772,6.61204949 C39.5067941,6.58241212 40.1343208,7.07507273 40.2634455,7.71203333 C40.3578436,8.1007202 40.2546416,8.50398283 40.0541069,8.84165455 C41.9357089,10.5397303 43.6104178,12.4676172 45.0048673,14.5801303 C46.4506733,16.7776687 47.5844277,19.1880131 48.2525505,21.7324545 C48.9593129,24.4882444 49.1564238,27.4048535 48.5528634,30.1995121 C48.1165782,32.2673263 47.2601485,34.250601 46.0256376,35.9739414 C45.0317683,37.3727283 43.8001921,38.6014646 42.4106337,39.6139939 C39.6662436,41.6293354 36.3461723,42.7851929 32.9737663,43.1942859 C32.8490436,43.2054606 32.7267663,43.2239232 32.6088911,43.2598768 C32.383901,44.5940444 31.6551287,45.8344414 30.6167505,46.7055859 C29.7216812,47.4630394 28.5942851,47.9450111 27.4248257,48.065504 C26.1717287,48.2010586 24.8736337,47.9352939 23.7887901,47.295904 C21.9947386,46.2692848 20.8228337,44.2534576 20.8653861,42.1934172 C20.8472891,42.0879859 20.9172317,41.9057889 20.7709881,41.8746939 C16.0403267,40.3432677 11.6769861,37.7118576 8.10942574,34.2680919 C6.12168713,32.3426343 4.38388317,30.1543273 3.02024752,27.7507848 C1.05647525,24.2968162 -0.1482,20.3424131 0.0151623762,16.3525424 C0.115918812,13.6846929 0.867679208,11.0314192 2.26653069,8.7459404 C2.93563168,7.68433939 3.69326139,6.67132424 4.59322178,5.79046263 C4.67392475,5.7297303 4.60789505,5.63012929 4.59175446,5.55579293 C4.3085604,4.81145758 4.43964158,3.92962424 4.92826139,3.29849394 C5.17428317,2.99094545 5.48388911,2.72712424 5.84974257,2.57067778 C6.64796832,2.20191111 7.64917426,2.32434747 8.33148119,2.87822626 C8.38821782,2.94916162 8.47332277,2.93312828 8.53984158,2.88697172 C10.9687564,1.58584242 13.6774416,0.843450505 16.4149842,0.564567677 L16.4149842,0.564567677 Z M17.0708792,1.31084646 C14.2707307,1.60916364 11.505798,2.43269394 9.08568713,3.88055253 C9.17470495,4.21482323 9.2598099,4.55832525 9.22508317,4.90765758 C9.16883564,5.82787374 8.52272277,6.67666869 7.64428317,6.97498586 C6.96588911,7.22471717 6.19603168,7.12365859 5.57388515,6.77189697 C4.91701188,7.4953404 4.34328713,8.29117677 3.85075446,9.13219798 C2.5961901,11.2665747 1.94029505,13.7259909 1.87475446,16.1917232 C1.80285545,18.7672596 2.34332079,21.3384232 3.29757228,23.7273899 C4.48023762,26.6799525 6.27477822,29.3730667 8.44544356,31.7008152 C11.9523545,35.4453273 16.4218317,38.2997465 21.3109644,39.9064808 C21.394602,39.7981343 21.4410673,39.6684101 21.502695,39.5479172 C22.0685941,38.4396737 22.9959446,37.5141131 24.1184495,36.9621778 C25.0047149,36.511301 26.0108119,36.2999525 27.0046812,36.3407646 C28.4832574,36.3796333 29.9329762,37.0127071 30.9728218,38.0563313 C31.8385446,38.9065838 32.4220515,40.0318323 32.6225861,41.2241293 C33.1420198,41.2153838 33.6546059,41.1016929 34.1662139,41.0200687 C37.7890436,40.3738768 41.2993782,38.7209859 43.831495,36.0269 C45.3413743,34.4381424 46.4770851,32.5005384 47.1163505,30.409403 C47.9654436,27.6842222 47.9659327,24.7447778 47.3457426,21.9734404 C46.7495188,19.2900434 45.5908198,16.7485172 44.0701802,14.4596374 C42.7970297,12.5536141 41.2930198,10.7914051 39.5840733,9.25754949 C39.0607267,9.54566364 38.352497,9.48590303 37.9152337,9.06806465 C37.5307941,8.73136465 37.3698772,8.177 37.4965564,7.68579697 C37.5019366,7.61583333 37.5581842,7.51477475 37.4725901,7.47153333 C34.6729307,5.33618485 31.5113307,3.67163333 28.1575109,2.57893737 C24.6002218,1.41870707 20.8022911,0.914871717 17.0708792,1.31084646 L17.0708792,1.31084646 Z" id="Shape"></path>
                                <path d="M16.1606475,7.09256364 C18.1620812,5.97071616 20.4848594,5.50720707 22.7680198,5.51838182 C25.741802,5.52518384 28.6676515,6.3550303 31.3186218,7.66247576 C33.645802,8.83776768 35.7665782,10.4294404 37.4975347,12.3733606 C39.156103,14.234199 40.4762079,16.4322232 41.1154733,18.8479121 C41.7253921,21.1586556 41.6735465,23.7011535 40.6395703,25.8884889 C41.0460198,26.4860949 41.1511782,27.2804737 40.8684733,27.9504727 C40.5686495,28.7059828 39.7997703,29.2467434 38.9829584,29.2744374 C38.6669941,29.296301 38.3554317,29.2239081 38.0565861,29.1281939 C37.135105,29.8438636 36.1016178,30.4147475 35.0025901,30.8116939 C31.9373446,31.9126495 28.5321683,31.8174212 25.4219248,30.9472485 C22.9176871,30.2801646 20.5557802,29.1175051 18.4756,27.5851071 C16.4477545,26.0857475 14.676202,24.2224798 13.3790851,22.0618667 C12.3583149,20.3608758 11.631499,18.4645697 11.4153129,16.4885828 C11.2157564,14.7054818 11.4524851,12.8490162 12.246798,11.2272202 C13.0464911,9.46792626 14.4742,8.02978485 16.1606475,7.09256364 L16.1606475,7.09256364 Z M21.964903,6.40701717 C19.7472832,6.59407273 17.5242832,7.33792222 15.816804,8.78869596 C14.348499,10.0174323 13.3526733,11.7786697 13.0367089,13.6574848 C12.7065604,15.5154081 13.0117644,17.4418374 13.6896693,19.1899566 C14.2839366,20.7184677 15.1579743,22.132802 16.2095584,23.3921475 C17.743404,25.2243202 19.6470158,26.7436 21.7560535,27.8775939 C24.2392594,29.2015586 27.0208218,30.0241172 29.8478713,30.0790192 C32.330099,30.1227465 34.8984099,29.5343717 36.9208752,28.0539606 C36.7061564,27.5671303 36.650398,27.0074212 36.8176733,26.4987273 C37.0133168,25.8535071 37.5405762,25.3190626 38.1847327,25.1082 C38.5921604,24.9648717 39.0357822,24.9736172 39.4544594,25.0664162 L39.5053267,25.0396939 C40.3363228,23.3795152 40.5432158,21.4550293 40.2468158,19.6354889 C39.8604198,17.2110545 38.671396,14.969303 37.1106495,13.0880586 C35.3933881,11.0241313 33.2090277,9.35520707 30.7874495,8.18331616 C28.0611564,6.87198384 24.9998238,6.15242727 21.964903,6.40701717 L21.964903,6.40701717 Z" id="Shape"></path>
                                <path d="M24.3033327,10.7277576 C25.7422911,10.5164091 27.2296713,10.7151253 28.5835248,11.2335364 C30.7341366,11.9943909 32.6392158,13.4888919 33.8091644,15.4449586 C34.476798,16.5789525 34.8861822,17.9179788 34.7076574,19.24 C34.6059228,20.3735081 33.9940475,21.4419111 33.0950653,22.1405758 C32.3168931,22.7551869 31.3557941,23.1113212 30.3785545,23.2531919 C29.0726337,23.4339313 27.7280733,23.2789424 26.4842693,22.8518727 C25.3554059,22.5020545 24.2979525,21.9379727 23.361798,21.2218172 C23.330495,21.2033545 23.2669109,21.167401 23.2346297,21.1494242 C22.6286238,21.4156747 21.9301762,21.487096 21.2918891,21.2942101 C20.4325248,21.0503091 19.7262515,20.3487293 19.472404,19.4984768 C19.1823624,18.5578545 19.4562634,17.4700172 20.1806337,16.7946737 C20.0128693,16.0974667 19.9233624,15.3730515 20.029499,14.6593253 C20.1664495,13.7760343 20.5288792,12.9082909 21.1661881,12.2645283 C21.9820218,11.3953273 23.1358297,10.9046101 24.3033327,10.7277576 L24.3033327,10.7277576 Z M24.3718079,11.774297 C23.4185347,12.0196556 22.5136832,12.5613879 21.9653921,13.3897768 C21.4283505,14.1710374 21.2718356,15.1607313 21.4014495,16.0862919 C21.614701,16.0882354 21.8245287,16.0323616 22.0392475,16.0377061 C22.656503,16.0279889 23.2742475,16.2398232 23.7550416,16.6246232 C24.4036,17.1367182 24.7968436,17.9612202 24.7557584,18.7866939 C24.7645624,19.3546626 24.5390832,19.8988242 24.2162713,20.3589323 C25.3686119,21.2305626 26.7488772,21.8145646 28.1863683,22.0074505 C29.4257703,22.1697273 30.7507663,22.0074505 31.827295,21.3423101 C32.6763881,20.8273 33.3083168,19.958099 33.4892871,18.9810374 C33.695202,17.9461586 33.4555386,16.8675525 32.9835485,15.9366475 C32.0356554,14.1020455 30.3051881,12.7280374 28.3653822,12.0395758 C27.0946772,11.5945293 25.6884891,11.4337101 24.3718079,11.774297 L24.3718079,11.774297 Z" id="Shape"></path>
                            </g>
                        </g>
                    </g>
                </g>
            </g>
        </g>
    </g>
</svg>