<?xml version="1.0" encoding="UTF-8" standalone="no"?>
<svg width="282px" height="290px" viewBox="0 0 282 290" version="1.1" xmlns="http://www.w3.org/2000/svg" xmlns:xlink="http://www.w3.org/1999/xlink" xmlns:sketch="http://www.bohemiancoding.com/sketch/ns">
    <!-- Generator: Sketch 3.3.3 (12072) - http://www.bohemiancoding.com/sketch -->
    <title>Artboard 7</title>
    <desc>Created with Sketch.</desc>
    <defs></defs>
    <g id="Page-1" stroke="none" stroke-width="1" fill="none" fill-rule="evenodd" sketch:type="MSPage">
        <g id="Artboard-7" sketch:type="MSArtboardGroup">
            <rect id="Rectangle-6" fill="#E5E6E7" sketch:type="MSShapeGroup" x="42" y="1" width="38" height="38" rx="3"></rect>
            <path d="M51,20 L53.9298281,20 L61.5,23.8568214 L69.0705,20 L72,20 L61.5,25.1428571 L51,20 L51,20 Z M51,16.1418929 L61.5,11 L72,16.1418929 L61.5,21.2857143 L51,16.1418929 L51,16.1418929 Z M61.4996719,12.28475 L53.6246719,15.9998214 L61.4996719,20.0003214 L69.3746719,15.9998214 L61.4996719,12.28475 L61.4996719,12.28475 Z M61.4996719,27.7142857 L69.0701719,23.8571429 L72,23.8571429 L61.5,29 L51,23.8571429 L53.9298281,23.8571429 L61.4996719,27.7142857 L61.4996719,27.7142857 Z" id="Shape" fill="#4A4A4A" sketch:type="MSShapeGroup"></path>
            <rect id="Rectangle-6-Copy-2" fill="#E5E6E7" sketch:type="MSShapeGroup" x="1" y="1" width="38" height="38" rx="3"></rect>
            <path d="M25.4377969,18.8565714 C24.1582656,18.8565714 23.0452813,18.2017143 22.4170938,17.2265714 L17.0739375,19.5108571 C17.0979844,19.672 17.125,19.832 17.125,19.9994286 C17.125,20.2505714 17.0935313,20.4928571 17.0403906,20.7285714 L22.3013125,22.9771429 C22.8992188,21.8908571 24.0715781,21.1422857 25.4375,21.1422857 C27.4048906,21.1422857 29,22.6774286 29,24.5708571 C29,26.4645714 27.4048906,28 25.4375,28 C23.4701094,28 21.875,26.4645714 21.875,24.5708571 C21.875,24.4034286 21.9023125,24.2431429 21.9263594,24.082 L16.5832031,21.7982857 C15.9553125,22.7731429 14.8420313,23.4285714 13.5625,23.4285714 C11.5951094,23.4285714 10,21.8928571 10,19.9994286 C10,18.106 11.5951094,16.5705714 13.5625,16.5705714 C14.9287188,16.5705714 16.1010781,17.3194286 16.6986875,18.4057143 L21.9596094,16.1565714 C21.9064687,15.9217143 21.875,15.6785714 21.875,15.4277143 C21.875,13.5351429 23.4701094,12 25.4375,12 C27.4048906,12 29,13.5351429 29,15.4277143 C29.0002969,17.322 27.4051875,18.8565714 25.4377969,18.8565714 L25.4377969,18.8565714 Z M25.4377969,26.8565714 C26.7493906,26.8565714 27.8127969,25.8334286 27.8127969,24.5708571 C27.8127969,23.3085714 26.7493906,22.2848571 25.4377969,22.2848571 C24.1262031,22.2848571 23.0627969,23.3085714 23.0627969,24.5708571 C23.0627969,25.8334286 24.1262031,26.8565714 25.4377969,26.8565714 L25.4377969,26.8565714 Z M13.5627969,17.7134286 C12.2512031,17.7134286 11.1877969,18.7371429 11.1877969,19.9994286 C11.1877969,21.2622857 12.2512031,22.2848571 13.5627969,22.2848571 C14.8743906,22.2848571 15.9377969,21.2622857 15.9377969,19.9994286 C15.9377969,18.7371429 14.8743906,17.7134286 13.5627969,17.7134286 L13.5627969,17.7134286 Z M25.4377969,13.142 C24.1262031,13.142 23.0627969,14.1657143 23.0627969,15.4277143 C23.0627969,16.6908571 24.1262031,17.7134286 25.4377969,17.7134286 C26.7493906,17.7134286 27.8127969,16.6908571 27.8127969,15.4277143 C27.8127969,14.1657143 26.7493906,13.142 25.4377969,13.142 L25.4377969,13.142 Z" id="Shape-Copy-7" fill="#4A4A4A" sketch:type="MSShapeGroup"></path>
            <g id="Shape-+-Rectangle-6" sketch:type="MSLayerGroup" transform="translate(83.000000, 1.000000)" fill="#E5E6E7">
                <rect id="Rectangle-6" sketch:type="MSShapeGroup" x="0" y="0" width="38" height="38" rx="3"></rect>
            </g>
            <path d="M112.527647,26.6864398 C112.527647,26.6864398 112.25985,26.9127174 109.000989,27.0178208 C109.082378,26.6137995 109.07122,26.1888861 108.995738,25.7806864 L111.003236,25.7861505 C112.032419,25.4335559 111.782671,23.7149388 111.003236,23.3745581 C110.443355,23.1309239 108.137538,22.5308382 106.775577,22.1859576 L106.594748,21.6025856 L106.594748,20.7456877 C107.729935,19.8707903 108.404023,18.0618549 108.404023,16.4084854 C108.404023,14.1299596 107.85727,12.2821328 105.124159,12.2821328 C104.922982,12.2821328 104.757578,12.312346 104.579374,12.3319524 C104.020478,11.9774294 103.298146,11.755973 102.385468,11.6894397 C103.056932,11.2638834 103.929571,11 105.12383,11 C108.885468,11 109.721351,13.4045213 109.721351,16.3699154 C109.721351,18.2772044 108.958325,20.2815614 107.68202,21.4781972 C109.036433,21.8063641 111.703251,22.485197 112.093461,22.8326488 C112.960849,23.6024428 113.39438,25.5296597 112.527647,26.6864398 L112.527647,26.6864398 Z M104.470746,17.9535374 C104.470746,19.9951787 103.68409,22.1367808 102.375623,23.3928788 C103.712642,23.7162244 106.447722,24.4088783 106.843183,24.7605086 C107.710244,25.5315882 108.143446,27.4584836 107.276713,28.6146209 C107.276713,28.6146209 106.843183,29 99.9083403,29 C92.9731692,29 92.4749869,28.6146209 92.4749869,28.6146209 C91.6016909,27.4581622 92.0414566,25.5315882 92.9150808,24.7605086 C93.3230127,24.4005214 96.0183827,23.7268312 97.3829692,23.4028428 C96.0672821,22.1489947 95.2753756,20.0012857 95.2753756,17.9535374 C95.2753756,14.8238991 96.1115868,12.2863112 99.8732246,12.2863112 C103.634862,12.2863112 104.470746,14.8238991 104.470746,17.9535374 L104.470746,17.9535374 Z M99.8732246,13.5796936 C97.1397853,13.5796936 96.5930318,15.5576944 96.5930318,17.9991786 C96.5930318,19.7695439 97.2667923,21.7067248 98.4019786,22.6442984 L98.4019786,23.531731 L98.2428096,24.0482483 C97.0833378,24.3777008 94.7794905,25.0439984 94.1844941,25.3037034 C93.4014485,25.6450484 92.8064521,27.3064533 93.9797076,27.7136888 C93.9823331,27.7136888 99.7934761,27.6998679 99.7934761,27.6998679 L105.752302,27.7136888 C106.781485,27.3620585 106.531737,25.6440841 105.752302,25.3037034 C105.192421,25.0587836 102.886276,24.4593407 101.524643,24.1144602 L101.343814,23.531731 L101.343814,22.6449413 C102.479001,21.707689 103.153089,19.7701868 103.153089,17.9991786 C103.153089,15.5576944 102.606664,13.5796936 99.8732246,13.5796936 L99.8732246,13.5796936 Z" id="Shape-Copy" fill="#4A4A4A" sketch:type="MSShapeGroup"></path>
            <g id="Shape-+-Rectangle-6-Copy" sketch:type="MSLayerGroup" transform="translate(124.000000, 1.000000)" fill="#E5E6E7">
                <rect id="Rectangle-6" sketch:type="MSShapeGroup" x="0" y="0" width="38" height="38" rx="3"></rect>
            </g>
            <path d="M153.343422,12.2850579 L152.687172,12.2850579 L152.687172,23.85315 C152.687172,24.5633221 152.0995,25.1385293 151.374672,25.1385293 L145.706641,25.1385293 L147.339719,28.0839759 C147.540859,28.3760784 147.42175,28.749481 147.072625,28.9185084 C146.723828,29.0859291 146.277906,28.9869549 146.076766,28.6948524 L144.253703,25.4074949 C144.194969,25.3220172 144.171016,25.2304339 144.164781,25.1388507 L142.834891,25.1388507 C142.828328,25.2307553 142.804703,25.3220172 142.745969,25.4074949 L140.922906,28.6948524 C140.721438,28.9869549 140.275516,29.0862504 139.926719,28.9185084 C139.577922,28.749481 139.458484,28.3760784 139.659953,28.0839759 L141.293359,25.1385293 L135.625,25.1385293 C134.900172,25.1385293 134.3125,24.5633221 134.3125,23.85315 L134.3125,12.2850579 L133.65625,12.2850579 C133.294,12.2850579 133,11.9974543 133,11.6420469 C133,11.2872823 133.294,11 133.65625,11 L135.625,11 L151.375,11 L153.34375,11 C153.706328,11 154,11.2876036 154,11.6420469 C153.999672,11.9977757 153.706,12.2850579 153.343422,12.2850579 L153.343422,12.2850579 Z M151.375,12.2863433 L150.725641,12.2863433 C150.723344,12.2863433 150.721047,12.2853793 150.71875,12.2853793 L136.28125,12.2853793 C136.278625,12.2853793 136.276656,12.2863433 136.274359,12.2863433 L135.625,12.2863433 L135.625,12.9277476 C135.625,12.9277476 135.625,12.9277476 135.625,12.9280689 L135.625,23.2107818 C135.625,23.5655464 135.919,23.8534714 136.28125,23.8534714 L150.71875,23.8534714 C151.081,23.8534714 151.375,23.5655464 151.375,23.2107818 L151.375,13.5723653 L151.375,12.2863433 L151.375,12.2863433 Z M140.306359,16.4673607 C140.312266,16.4573991 140.322109,16.4519362 140.328344,16.4426172 C140.355906,16.4034131 140.387734,16.3677438 140.426125,16.3336813 C140.466156,16.296084 140.507828,16.2642708 140.555078,16.2379205 C140.565906,16.2321363 140.571813,16.2228173 140.583297,16.2176758 C140.594781,16.2118916 140.607906,16.2118916 140.619719,16.2070714 C140.673531,16.184256 140.727016,16.1688314 140.784766,16.1607978 C141.089266,16.101349 141.414766,16.202894 141.579156,16.4410105 L144.783625,18.6769277 L148.837609,15.0511941 C149.018734,14.7439885 149.420359,14.6389087 149.734047,14.8162911 C150.048062,14.9933521 150.155359,15.3866781 149.974234,15.6938838 L145.380484,19.8022773 C145.199359,20.1101256 144.798062,20.2142413 144.484047,20.037823 C144.435156,20.009866 144.427281,19.9526666 144.388562,19.9160333 C144.277656,19.8639755 144.176266,19.7964931 144.108016,19.6975189 L141.055797,17.5686094 L138.162062,20.9565479 C137.980937,21.2660029 137.579312,21.3717254 137.265625,21.193379 C136.951609,21.0147113 136.844312,20.6191358 137.025437,20.309038 L140.306359,16.4673607 L140.306359,16.4673607 Z" id="Shape-Copy-2" fill="#4A4A4A" sketch:type="MSShapeGroup"></path>
            <g id="Oval-302-+-Shape" sketch:type="MSLayerGroup" transform="translate(2.000000, 56.000000)" stroke="#FFFFFF">
                <circle id="Oval-302" stroke-width="3" sketch:type="MSShapeGroup" cx="20" cy="20" r="20"></circle>
                <path d="M27.38733,15.768658 L18.2875647,24.8681959 C18.1115986,25.0439347 17.8265063,25.0439347 17.6505402,24.8681959 C17.6484941,24.8663772 17.6494035,24.8634217 17.6475847,24.8613756 C17.6434925,24.857738 17.6384909,24.8566013 17.6343986,24.8527364 L13.1331681,20.3515059 C12.9556106,20.173721 12.9556106,19.8859005 13.1331681,19.7085704 C13.3107256,19.5307855 13.5987735,19.5307855 13.776331,19.7085704 L17.9749635,23.9069756 L26.7503055,15.1316335 C26.9260442,14.9561222 27.2113639,14.9561222 27.38733,15.1316335 C27.5632961,15.3071449 27.5630687,15.5924646 27.38733,15.768658 L27.38733,15.768658 Z" id="Shape-Copy-4" stroke-width="1.5" fill="#FFFFFF" sketch:type="MSShapeGroup"></path>
            </g>
            <g id="Oval-302-+-Shape-Copy" sketch:type="MSLayerGroup" transform="translate(51.000000, 56.000000)">
                <circle id="Oval-302" stroke="#FFFFFF" stroke-width="3" sketch:type="MSShapeGroup" cx="20" cy="20" r="20"></circle>
                <g id="Shape-+-Shape-Copy-5" transform="translate(13.000000, 14.000000)" fill="#FFFFFF" sketch:type="MSShapeGroup">
                    <path d="M0.8,1.4 L2.2,0 L8.2,6 L2.2,12 L0.8,10.6 L5.4,6 L0.8,1.4 Z" id="Shape"></path>
                    <path d="M5.8,1.4 L7.2,0 L13.2,6 L7.2,12 L5.8,10.6 L10.4,6 L5.8,1.4 Z" id="Shape-Copy-5" transform="translate(9.500000, 6.000000) scale(-1, 1) translate(-9.500000, -6.000000) "></path>
                </g>
            </g>
            <circle id="Oval-302-Copy" stroke="#FFFFFF" stroke-width="3" sketch:type="MSShapeGroup" cx="121" cy="76" r="20"></circle>
            <path d="M118,71.4 L119.4,70 L125.4,76 L119.4,82 L118,80.6 L122.6,76 L118,71.4 Z" id="Shape-Copy-3" fill="#FFFFFF" sketch:type="MSShapeGroup"></path>
            <path d="M176.75,13 L168.5,13 C167.671625,13 167,12.328375 167,11.5 L167,5.5 L167,4.75 L167,2.5 C167,1.6718125 167.671813,1 168.5,1 L171.5,1 C172.328375,1 173,1.6718125 173,2.5 L176.75,2.5 C177.578375,2.5 178.25,3.171625 178.25,4.000375 L178.25,4.75 L178.25,5.5 L178.25,6.25 L178.25,11.5 C178.25,12.328375 177.578187,13 176.75,13 L176.75,13 Z M177.5,4.000375 C177.5,3.5858125 177.164188,3.25 176.75,3.25 L176,3.25 L173,3.25 L172.25,3.25 L172.25,2.5 C172.25,2.0858125 171.914188,1.75 171.5,1.75 L168.5,1.75 C168.085812,1.75 167.75,2.0858125 167.75,2.5 L167.75,3.25 L167.75,4.000375 L167.75,4.75 L177.5,4.75 L177.5,4.000375 L177.5,4.000375 Z M177.5,7.5420625 L177.5,6.25 L177.5,5.5 L167.75,5.5 L167.75,6.25 L167.75,6.7920625 L167.75,11.5 C167.75,11.9141875 168.085812,12.25 168.5,12.25 L176.75,12.25 C177.164188,12.25 177.5,11.9141875 177.5,11.5 L177.5,7.5420625 L177.5,7.5420625 Z M172.129063,10.6133125 C172.10075,10.64125 172.06025,10.6384375 172.0265,10.6556875 C171.97325,10.685125 171.924125,10.72375 171.866188,10.7215 C171.767188,10.7231875 171.668188,10.6885 171.592813,10.6135 C171.577625,10.5986875 171.582125,10.576375 171.570125,10.559875 L170.085688,9.19375 C169.944688,9.033625 169.944688,8.774875 170.085688,8.6145625 C170.226687,8.4548125 170.455437,8.4548125 170.596625,8.6145625 L171.880812,9.7969375 L174.5975,7.109875 C174.745625,6.9630625 174.985625,6.9630625 175.133938,7.109875 C175.282062,7.2563125 175.282062,7.4951875 175.133938,7.64125 L172.129063,10.6133125 L172.129063,10.6133125 Z" id="Shape-Copy-6" fill="#909090" sketch:type="MSShapeGroup"></path>
            <circle id="Oval-257" fill="#FFFFFF" sketch:type="MSShapeGroup" cx="194" cy="11" r="10"></circle>
            <path d="M198.5,7.4 L197.6,6.5 L194,10.1 L190.4,6.5 L189.5,7.4 L193.1,11 L189.5,14.6 L190.4,15.5 L194,11.9 L197.6,15.5 L198.5,14.6 L194.9,11 L198.5,7.4 Z" id="Shape-Copy-8" fill="#666666" sketch:type="MSShapeGroup"></path>
        </g>
    </g>
</svg>